<svg xmlns="http://www.w3.org/2000/svg" viewBox="2457.6 1973.1522799824647 716.8 709.4480107802121" width="717" height="709"><rect x="2457.6" y="1973.1522799824647" width="716.8" height="709.4480107802121" fill="#24677c"/><polygon points="2816.000,2327.876 2880.000,2217.025 2944.000,2327.876" fill="#92966a" stroke="#92966a" stroke-width="0.5"/><polygon points="2816.000,2327.876 2944.000,2327.876 2880.000,2438.728" fill="#92966a" stroke="#92966a" stroke-width="0.5"/><polygon points="2816.000,2327.876 2880.000,2438.728 2752.000,2438.728" fill="#92966a" stroke="#92966a" stroke-width="0.5"/><polygon points="2816.000,2327.876 2752.000,2438.728 2688.000,2327.876" fill="#92966a" stroke="#92966a" stroke-width="0.5"/><polygon points="2816.000,2327.876 2688.000,2327.876 2752.000,2217.025" fill="#92966a" stroke="#92966a" stroke-width="0.5"/><polygon points="2816.000,2327.876 2752.000,2217.025 2880.000,2217.025" fill="#92966a" stroke="#92966a" stroke-width="0.5"/><polygon points="2624.000,2217.025 2688.000,2106.174 2752.000,2217.025" fill="#92966a" stroke="#92966a" stroke-width="0.5"/><polygon points="2624.000,2217.025 2752.000,2217.025 2688.000,2327.876" fill="#92966a" stroke="#92966a" stroke-width="0.5"/><polygon points="2624.000,2217.025 2688.000,2327.876 2560.000,2327.876" fill="#92966a" stroke="#92966a" stroke-width="0.5"/><polygon points="2624.000,2217.025 2560.000,2327.876 2496.000,2217.025" fill="#92966a" stroke="#92966a" stroke-width="0.5"/><polygon points="2624.000,2217.025 2496.000,2217.025 2560.000,2106.174" fill="#92966a" stroke="#92966a" stroke-width="0.5"/><polygon points="2624.000,2217.025 2560.000,2106.174 2688.000,2106.174" fill="#92966a" stroke="#92966a" stroke-width="0.5"/><polygon points="2624.000,2438.728 2688.000,2327.876 2752.000,2438.728" fill="#92966a" stroke="#92966a" stroke-width="0.5"/><polygon points="2624.000,2438.728 2752.000,2438.728 2720.000,2494.153 2652.295,2487.736" fill="#92966a" stroke="#92966a" stroke-width="0.5"/><polygon points="2624.000,2438.728 2652.295,2487.736 2602.501,2549.579 2560.000,2549.579" fill="#92966a" stroke="#92966a" stroke-width="0.5"/><polygon points="2624.000,2438.728 2560.000,2549.579 2496.000,2438.728" fill="#92966a" stroke="#92966a" stroke-width="0.5"/><polygon points="2624.000,2438.728 2496.000,2438.728 2560.000,2327.876" fill="#92966a" stroke="#92966a" stroke-width="0.5"/><polygon points="2624.000,2438.728 2560.000,2327.876 2688.000,2327.876" fill="#92966a" stroke="#92966a" stroke-width="0.5"/><polygon points="2816.000,2106.174 2880.000,1995.323 2944.000,2106.174" fill="#92966a" stroke="#92966a" stroke-width="0.5"/><polygon points="2816.000,2106.174 2944.000,2106.174 2880.000,2217.025" fill="#92966a" stroke="#92966a" stroke-width="0.5"/><polygon points="2816.000,2106.174 2880.000,2217.025 2752.000,2217.025" fill="#92966a" stroke="#92966a" stroke-width="0.5"/><polygon points="2816.000,2106.174 2752.000,2217.025 2688.000,2106.174" fill="#92966a" stroke="#92966a" stroke-width="0.5"/><polygon points="2816.000,2106.174 2688.000,2106.174 2752.000,1995.323" fill="#92966a" stroke="#92966a" stroke-width="0.5"/><polygon points="2816.000,2106.174 2752.000,1995.323 2880.000,1995.323" fill="#92966a" stroke="#92966a" stroke-width="0.5"/><polygon points="3008.000,2217.025 3072.000,2106.174 3136.000,2217.025" fill="#92966a" stroke="#92966a" stroke-width="0.5"/><polygon points="3008.000,2217.025 3136.000,2217.025 3072.000,2327.876" fill="#92966a" stroke="#92966a" stroke-width="0.5"/><polygon points="3008.000,2217.025 3072.000,2327.876 2944.000,2327.876" fill="#92966a" stroke="#92966a" stroke-width="0.5"/><polygon points="3008.000,2217.025 2944.000,2327.876 2880.000,2217.025" fill="#92966a" stroke="#92966a" stroke-width="0.5"/><polygon points="3008.000,2217.025 2880.000,2217.025 2944.000,2106.174" fill="#92966a" stroke="#92966a" stroke-width="0.5"/><polygon points="3008.000,2217.025 2944.000,2106.174 3072.000,2106.174" fill="#92966a" stroke="#92966a" stroke-width="0.5"/><polygon points="3008.000,2438.728 3072.000,2327.876 3104.000,2383.302 3008.000,2438.728" fill="#92966a" stroke="#92966a" stroke-width="0.5"/><polygon points="3008.000,2438.728 3008.000,2438.728 3008.000,2438.728" fill="#92966a" stroke="#92966a" stroke-width="0.5"/><polygon points="3008.000,2438.728 3008.000,2438.728 3008.000,2438.728" fill="#92966a" stroke="#92966a" stroke-width="0.5"/><polygon points="3008.000,2438.728 3008.000,2438.728 2912.000,2494.153 2880.000,2438.728" fill="#92966a" stroke="#92966a" stroke-width="0.5"/><polygon points="3008.000,2438.728 2880.000,2438.728 2944.000,2327.876" fill="#92966a" stroke="#92966a" stroke-width="0.5"/><polygon points="3008.000,2438.728 2944.000,2327.876 3072.000,2327.876" fill="#92966a" stroke="#92966a" stroke-width="0.5"/><polygon points="2843.542,2501.875 2880.000,2438.728 2912.000,2494.153" fill="#92966a" stroke="#92966a" stroke-width="0.5"/><polygon points="2720.000,2494.153 2752.000,2438.728 2787.705,2500.570" fill="#92966a" stroke="#92966a" stroke-width="0.5"/><polygon points="2787.705,2500.570 2752.000,2438.728 2880.000,2438.728 2843.542,2501.875" fill="#92966a" stroke="#92966a" stroke-width="0.5"/><polygon points="2880.000,2217.025 2944.000,2327.876 2880.000,2438.728 2752.000,2438.728 2688.000,2327.876 2752.000,2217.025" fill="none" stroke="#ffdb6b" stroke-opacity="1" stroke-width="5"/><text x="2816" y="2327.8762853725707" text-anchor="middle" fill="#fff" font-family="sans-serif" font-size="20">10/14</text><polygon points="2688.000,2106.174 2752.000,2217.025 2688.000,2327.876 2560.000,2327.876 2496.000,2217.025 2560.000,2106.174" fill="none" stroke="#ffffff" stroke-opacity="0.3" stroke-width="1"/><text x="2624" y="2217.0250336881627" text-anchor="middle" fill="#fff" font-family="sans-serif" font-size="20">9/13</text><polygon points="2688.000,2327.876 2752.000,2438.728 2688.000,2549.579 2560.000,2549.579 2496.000,2438.728 2560.000,2327.876" fill="none" stroke="#ffffff" stroke-opacity="0.3" stroke-width="1"/><text x="2624" y="2438.7275370569787" text-anchor="middle" fill="#fff" font-family="sans-serif" font-size="20">10/13</text><polygon points="2880.000,1995.323 2944.000,2106.174 2880.000,2217.025 2752.000,2217.025 2688.000,2106.174 2752.000,1995.323" fill="none" stroke="#ffffff" stroke-opacity="0.3" stroke-width="1"/><text x="2816" y="2106.1737820037547" text-anchor="middle" fill="#fff" font-family="sans-serif" font-size="20">9/14</text><polygon points="3072.000,2106.174 3136.000,2217.025 3072.000,2327.876 2944.000,2327.876 2880.000,2217.025 2944.000,2106.174" fill="none" stroke="#ffffff" stroke-opacity="0.3" stroke-width="1"/><text x="3008" y="2217.0250336881627" text-anchor="middle" fill="#fff" font-family="sans-serif" font-size="20">9/15</text><polygon points="3072.000,2327.876 3136.000,2438.728 3072.000,2549.579 2944.000,2549.579 2880.000,2438.728 2944.000,2327.876" fill="none" stroke="#ffffff" stroke-opacity="0.3" stroke-width="1"/><text x="3008" y="2438.7275370569787" text-anchor="middle" fill="#fff" font-family="sans-serif" font-size="20">10/15</text><polygon points="2880.000,2438.728 2944.000,2549.579 2880.000,2660.430 2752.000,2660.430 2688.000,2549.579 2752.000,2438.728" fill="none" stroke="#ffffff" stroke-opacity="0.3" stroke-width="1"/><text x="2816" y="2549.578788741387" text-anchor="middle" fill="#fff" font-family="sans-serif" font-size="20">11/14</text></svg>