<svg xmlns="http://www.w3.org/2000/svg" viewBox="345.6 2749.1110417733216 716.8 709.4480107802121" width="717" height="709"><rect x="345.6" y="2749.1110417733216" width="716.8" height="709.4480107802121" fill="#24677c"/><polygon points="948.610,2901.861 960.000,2882.133 1007.567,2964.521" fill="#92966a" stroke="#92966a" stroke-width="0.5"/><polygon points="1003.955,3027.702 960.000,3103.835 950.982,3088.215" fill="#92966a" stroke="#92966a" stroke-width="0.5"/><polygon points="950.982,3088.215 960.000,3103.835 941.964,3103.835" fill="#92966a" stroke="#92966a" stroke-width="0.5"/><polygon points="909.598,2882.133 960.000,2882.133 948.610,2901.861" fill="#92966a" stroke="#92966a" stroke-width="0.5"/><polygon points="960.000,2882.133 1024.000,2992.984 1013.319,3011.484 938.638,2882.133" fill="#92966a" stroke="#92966a" stroke-width="0.5"/><polygon points="768.000,2992.984 832.000,3103.835 768.000,3214.686 640.000,3214.686 576.000,3103.835 640.000,2992.984" fill="none" stroke="#ffdb6b" stroke-opacity="1" stroke-width="5"/><text x="704" y="3103.8350471634276" text-anchor="middle" fill="#fff" font-family="sans-serif" font-size="20">13/3</text><polygon points="576.000,2882.133 640.000,2992.984 576.000,3103.835 448.000,3103.835 384.000,2992.984 448.000,2882.133" fill="none" stroke="#ffffff" stroke-opacity="0.3" stroke-width="1"/><text x="512" y="2992.9837954790196" text-anchor="middle" fill="#fff" font-family="sans-serif" font-size="20">13/2</text><polygon points="768.000,2771.281 832.000,2882.133 768.000,2992.984 640.000,2992.984 576.000,2882.133 640.000,2771.281" fill="none" stroke="#ffffff" stroke-opacity="0.3" stroke-width="1"/><text x="704" y="2882.1325437946116" text-anchor="middle" fill="#fff" font-family="sans-serif" font-size="20">12/3</text><polygon points="960.000,2882.133 1024.000,2992.984 960.000,3103.835 832.000,3103.835 768.000,2992.984 832.000,2882.133" fill="none" stroke="#ffffff" stroke-opacity="0.3" stroke-width="1"/><text x="896" y="2992.9837954790196" text-anchor="middle" fill="#fff" font-family="sans-serif" font-size="20">13/4</text></svg>