<svg xmlns="http://www.w3.org/2000/svg" viewBox="4185.6 975.4910148227917 716.8 709.4480107802121" width="717" height="709"><rect x="4185.6" y="975.4910148227917" width="716.8" height="709.4480107802121" fill="#24677c"/><polygon points="4608.000,1219.364 4672.000,1330.215 4608.000,1441.066 4480.000,1441.066 4416.000,1330.215 4480.000,1219.364" fill="none" stroke="#ffdb6b" stroke-opacity="1" stroke-width="5"/><text x="4544" y="1330.2150202128978" text-anchor="middle" fill="#fff" font-family="sans-serif" font-size="20">5/23</text><polygon points="4416.000,1108.513 4480.000,1219.364 4416.000,1330.215 4288.000,1330.215 4224.000,1219.364 4288.000,1108.513" fill="none" stroke="#ffffff" stroke-opacity="0.3" stroke-width="1"/><text x="4352" y="1219.3637685284896" text-anchor="middle" fill="#fff" font-family="sans-serif" font-size="20">5/22</text><polygon points="4416.000,1330.215 4480.000,1441.066 4416.000,1551.918 4288.000,1551.918 4224.000,1441.066 4288.000,1330.215" fill="none" stroke="#ffffff" stroke-opacity="0.3" stroke-width="1"/><text x="4352" y="1441.066271897306" text-anchor="middle" fill="#fff" font-family="sans-serif" font-size="20">6/22</text><polygon points="4608.000,997.661 4672.000,1108.513 4608.000,1219.364 4480.000,1219.364 4416.000,1108.513 4480.000,997.661" fill="none" stroke="#ffffff" stroke-opacity="0.3" stroke-width="1"/><text x="4544" y="1108.5125168440813" text-anchor="middle" fill="#fff" font-family="sans-serif" font-size="20">4/23</text><polygon points="4608.000,1441.066 4672.000,1551.918 4608.000,1662.769 4480.000,1662.769 4416.000,1551.918 4480.000,1441.066" fill="none" stroke="#ffffff" stroke-opacity="0.3" stroke-width="1"/><text x="4544" y="1551.9175235817142" text-anchor="middle" fill="#fff" font-family="sans-serif" font-size="20">6/23</text></svg>