<svg xmlns="http://www.w3.org/2000/svg" viewBox="2457.6 864.6397631383835 716.8 709.4480107802121" width="717" height="709"><rect x="2457.6" y="864.6397631383835" width="716.8" height="709.4480107802121" fill="#24677c"/><polygon points="2816.000,1219.364 2880.000,1108.513 2944.000,1219.364" fill="#92966a" stroke="#92966a" stroke-width="0.5"/><polygon points="2816.000,1219.364 2944.000,1219.364 2880.000,1330.215" fill="#92966a" stroke="#92966a" stroke-width="0.5"/><polygon points="2816.000,1219.364 2880.000,1330.215 2752.000,1330.215" fill="#92966a" stroke="#92966a" stroke-width="0.5"/><polygon points="2816.000,1219.364 2752.000,1330.215 2688.000,1219.364" fill="#92966a" stroke="#92966a" stroke-width="0.5"/><polygon points="2816.000,1219.364 2688.000,1219.364 2752.000,1108.513" fill="#92966a" stroke="#92966a" stroke-width="0.5"/><polygon points="2816.000,1219.364 2752.000,1108.513 2880.000,1108.513" fill="#92966a" stroke="#92966a" stroke-width="0.5"/><polygon points="2624.000,1108.513 2688.000,997.661 2752.000,1108.513" fill="#92966a" stroke="#92966a" stroke-width="0.5"/><polygon points="2624.000,1108.513 2752.000,1108.513 2688.000,1219.364" fill="#92966a" stroke="#92966a" stroke-width="0.5"/><polygon points="2624.000,1108.513 2688.000,1219.364 2560.000,1219.364" fill="#92966a" stroke="#92966a" stroke-width="0.5"/><polygon points="2624.000,1108.513 2560.000,1219.364 2496.000,1108.513" fill="#92966a" stroke="#92966a" stroke-width="0.5"/><polygon points="2624.000,1108.513 2496.000,1108.513 2560.000,997.661" fill="#92966a" stroke="#92966a" stroke-width="0.5"/><polygon points="2624.000,1108.513 2560.000,997.661 2688.000,997.661" fill="#92966a" stroke="#92966a" stroke-width="0.5"/><polygon points="2624.000,1330.215 2688.000,1219.364 2752.000,1330.215" fill="#92966a" stroke="#92966a" stroke-width="0.5"/><polygon points="2624.000,1330.215 2752.000,1330.215 2688.000,1441.066" fill="#92966a" stroke="#92966a" stroke-width="0.5"/><polygon points="2624.000,1330.215 2688.000,1441.066 2560.000,1441.066" fill="#92966a" stroke="#92966a" stroke-width="0.5"/><polygon points="2624.000,1330.215 2560.000,1441.066 2496.000,1330.215" fill="#92966a" stroke="#92966a" stroke-width="0.5"/><polygon points="2624.000,1330.215 2496.000,1330.215 2560.000,1219.364" fill="#92966a" stroke="#92966a" stroke-width="0.5"/><polygon points="2624.000,1330.215 2560.000,1219.364 2688.000,1219.364" fill="#92966a" stroke="#92966a" stroke-width="0.5"/><polygon points="2816.000,997.661 2880.000,886.810 2944.000,997.661" fill="#92966a" stroke="#92966a" stroke-width="0.5"/><polygon points="2816.000,997.661 2944.000,997.661 2880.000,1108.513" fill="#92966a" stroke="#92966a" stroke-width="0.5"/><polygon points="2816.000,997.661 2880.000,1108.513 2752.000,1108.513" fill="#92966a" stroke="#92966a" stroke-width="0.5"/><polygon points="2816.000,997.661 2752.000,1108.513 2688.000,997.661" fill="#92966a" stroke="#92966a" stroke-width="0.5"/><polygon points="2816.000,997.661 2688.000,997.661 2752.000,886.810" fill="#92966a" stroke="#92966a" stroke-width="0.5"/><polygon points="2816.000,997.661 2752.000,886.810 2880.000,886.810" fill="#92966a" stroke="#92966a" stroke-width="0.5"/><polygon points="3008.000,1108.513 3060.364,1017.816 3096.615,1108.513" fill="#92966a" stroke="#92966a" stroke-width="0.5"/><polygon points="3008.000,1108.513 3096.615,1108.513 3106.909,1158.899 3072.000,1219.364" fill="#92966a" stroke="#92966a" stroke-width="0.5"/><polygon points="3008.000,1108.513 3072.000,1219.364 2944.000,1219.364" fill="#92966a" stroke="#92966a" stroke-width="0.5"/><polygon points="3008.000,1108.513 2944.000,1219.364 2880.000,1108.513" fill="#92966a" stroke="#92966a" stroke-width="0.5"/><polygon points="3008.000,1108.513 2880.000,1108.513 2944.000,997.661" fill="#92966a" stroke="#92966a" stroke-width="0.5"/><polygon points="3008.000,1108.513 2944.000,997.661 3056.390,997.661 3060.364,1017.816" fill="#92966a" stroke="#92966a" stroke-width="0.5"/><polygon points="3008.000,1330.215 3072.000,1219.364 3136.000,1330.215" fill="#92966a" stroke="#92966a" stroke-width="0.5"/><polygon points="3008.000,1330.215 3136.000,1330.215 3072.000,1441.066" fill="#92966a" stroke="#92966a" stroke-width="0.5"/><polygon points="3008.000,1330.215 3072.000,1441.066 2944.000,1441.066" fill="#92966a" stroke="#92966a" stroke-width="0.5"/><polygon points="3008.000,1330.215 2944.000,1441.066 2880.000,1330.215" fill="#92966a" stroke="#92966a" stroke-width="0.5"/><polygon points="3008.000,1330.215 2880.000,1330.215 2944.000,1219.364" fill="#92966a" stroke="#92966a" stroke-width="0.5"/><polygon points="3008.000,1330.215 2944.000,1219.364 3072.000,1219.364" fill="#92966a" stroke="#92966a" stroke-width="0.5"/><polygon points="2816.000,1441.066 2880.000,1330.215 2944.000,1441.066" fill="#92966a" stroke="#92966a" stroke-width="0.5"/><polygon points="2816.000,1441.066 2944.000,1441.066 2880.000,1551.918" fill="#92966a" stroke="#92966a" stroke-width="0.5"/><polygon points="2816.000,1441.066 2880.000,1551.918 2752.000,1551.918" fill="#92966a" stroke="#92966a" stroke-width="0.5"/><polygon points="2816.000,1441.066 2752.000,1551.918 2688.000,1441.066" fill="#92966a" stroke="#92966a" stroke-width="0.5"/><polygon points="2816.000,1441.066 2688.000,1441.066 2752.000,1330.215" fill="#92966a" stroke="#92966a" stroke-width="0.5"/><polygon points="2816.000,1441.066 2752.000,1330.215 2880.000,1330.215" fill="#92966a" stroke="#92966a" stroke-width="0.5"/><polygon points="2880.000,1108.513 2944.000,1219.364 2880.000,1330.215 2752.000,1330.215 2688.000,1219.364 2752.000,1108.513" fill="none" stroke="#ffdb6b" stroke-opacity="1" stroke-width="5"/><text x="2816" y="1219.3637685284896" text-anchor="middle" fill="#fff" font-family="sans-serif" font-size="20">5/14</text><polygon points="2688.000,997.661 2752.000,1108.513 2688.000,1219.364 2560.000,1219.364 2496.000,1108.513 2560.000,997.661" fill="none" stroke="#ffffff" stroke-opacity="0.3" stroke-width="1"/><text x="2624" y="1108.5125168440813" text-anchor="middle" fill="#fff" font-family="sans-serif" font-size="20">4/13</text><polygon points="2688.000,1219.364 2752.000,1330.215 2688.000,1441.066 2560.000,1441.066 2496.000,1330.215 2560.000,1219.364" fill="none" stroke="#ffffff" stroke-opacity="0.3" stroke-width="1"/><text x="2624" y="1330.2150202128978" text-anchor="middle" fill="#fff" font-family="sans-serif" font-size="20">5/13</text><polygon points="2880.000,886.810 2944.000,997.661 2880.000,1108.513 2752.000,1108.513 2688.000,997.661 2752.000,886.810" fill="none" stroke="#ffffff" stroke-opacity="0.3" stroke-width="1"/><text x="2816" y="997.6612651596732" text-anchor="middle" fill="#fff" font-family="sans-serif" font-size="20">4/14</text><polygon points="3072.000,997.661 3136.000,1108.513 3072.000,1219.364 2944.000,1219.364 2880.000,1108.513 2944.000,997.661" fill="none" stroke="#ffffff" stroke-opacity="0.3" stroke-width="1"/><text x="3008" y="1108.5125168440813" text-anchor="middle" fill="#fff" font-family="sans-serif" font-size="20">4/15</text><polygon points="3072.000,1219.364 3136.000,1330.215 3072.000,1441.066 2944.000,1441.066 2880.000,1330.215 2944.000,1219.364" fill="none" stroke="#ffffff" stroke-opacity="0.3" stroke-width="1"/><text x="3008" y="1330.2150202128978" text-anchor="middle" fill="#fff" font-family="sans-serif" font-size="20">5/15</text><polygon points="2880.000,1330.215 2944.000,1441.066 2880.000,1551.918 2752.000,1551.918 2688.000,1441.066 2752.000,1330.215" fill="none" stroke="#ffffff" stroke-opacity="0.3" stroke-width="1"/><text x="2816" y="1441.066271897306" text-anchor="middle" fill="#fff" font-family="sans-serif" font-size="20">6/14</text></svg>