<svg xmlns="http://www.w3.org/2000/svg" viewBox="4185.6 1640.5985249292407 716.8 709.4480107802121" width="717" height="709"><rect x="4185.6" y="1640.5985249292407" width="716.8" height="709.4480107802121" fill="#24677c"/><polygon points="4608.000,1884.471 4672.000,1995.323 4608.000,2106.174 4480.000,2106.174 4416.000,1995.323 4480.000,1884.471" fill="none" stroke="#ffdb6b" stroke-opacity="1" stroke-width="5"/><text x="4544" y="1995.3225303193467" text-anchor="middle" fill="#fff" font-family="sans-serif" font-size="20">8/23</text><polygon points="4416.000,1773.620 4480.000,1884.471 4416.000,1995.323 4288.000,1995.323 4224.000,1884.471 4288.000,1773.620" fill="none" stroke="#ffffff" stroke-opacity="0.3" stroke-width="1"/><text x="4352" y="1884.4712786349385" text-anchor="middle" fill="#fff" font-family="sans-serif" font-size="20">8/22</text><polygon points="4416.000,1995.323 4480.000,2106.174 4416.000,2217.025 4288.000,2217.025 4224.000,2106.174 4288.000,1995.323" fill="none" stroke="#ffffff" stroke-opacity="0.3" stroke-width="1"/><text x="4352" y="2106.1737820037547" text-anchor="middle" fill="#fff" font-family="sans-serif" font-size="20">9/22</text><polygon points="4608.000,1662.769 4672.000,1773.620 4608.000,1884.471 4480.000,1884.471 4416.000,1773.620 4480.000,1662.769" fill="none" stroke="#ffffff" stroke-opacity="0.3" stroke-width="1"/><text x="4544" y="1773.6200269505305" text-anchor="middle" fill="#fff" font-family="sans-serif" font-size="20">7/23</text><polygon points="4608.000,2106.174 4672.000,2217.025 4608.000,2327.876 4480.000,2327.876 4416.000,2217.025 4480.000,2106.174" fill="none" stroke="#ffffff" stroke-opacity="0.3" stroke-width="1"/><text x="4544" y="2217.0250336881627" text-anchor="middle" fill="#fff" font-family="sans-serif" font-size="20">9/23</text></svg>